<svg xmlns="http://www.w3.org/2000/svg">
	<symbol viewBox="0 0 39 38" id="facebook">
		<path
			d="M38.5 19.1161C38.5 8.55857 29.9934 0 19.5 0C9.00658 0 0.5 8.55857 0.5 19.1161C0.5 28.6575 7.44803 36.5659 16.5312 38V24.6419H11.707V19.1161H16.5312V14.9046C16.5312 10.1136 19.3678 7.46723 23.7078 7.46723C25.7866 7.46723 27.9609 7.84059 27.9609 7.84059V12.545H25.5651C23.2048 12.545 22.4688 14.0185 22.4688 15.5302V19.1161H27.7383L26.8959 24.6419H22.4688V38C31.552 36.5659 38.5 28.6575 38.5 19.1161Z" />
	</symbol>

	<symbol width="12" height="26" viewBox="0 0 12 26" id="slash">
		<path fill-rule="evenodd" clip-rule="evenodd" d="M8.72827 0H11.9505L3.55574 26H0.333496L8.72827 0Z" fill="#F0145A"/>
	</symbol>
</svg>